<svg xmlns="http://www.w3.org/2000/svg" version="1.1" xmlns:xlink="http://www.w3.org/1999/xlink" xmlns:svgjs="http://svgjs.dev/svgjs" width="1500" height="696" viewBox="0 0 1500 696"><g transform="matrix(1,0,0,1,-0.9090909090909918,0.2257450016185203)"><svg viewBox="0 0 396 184" data-background-color="#000000" preserveAspectRatio="xMidYMid meet" height="696" width="1500" xmlns="http://www.w3.org/2000/svg" xmlns:xlink="http://www.w3.org/1999/xlink"><g id="tight-bounds" transform="matrix(1,0,0,1,0.2400000000000091,-0.05967971307156006)"><svg viewBox="0 0 395.52 184.11935942614312" height="184.11935942614312" width="395.52"><g><svg viewBox="0 0 395.52000000000004 184.11935942614315" height="184.11935942614312" width="395.52"><g transform="matrix(1,0,0,1,0,113.79315062771897)"><svg viewBox="0 0 395.52000000000004 70.32620879842416" height="70.32620879842416" width="395.52000000000004"><g id="textblocktransform"><svg viewBox="0 0 395.52000000000004 70.32620879842416" height="70.32620879842416" width="395.52000000000004" id="textblock"><g><svg viewBox="0 0 395.52000000000004 70.32620879842416" height="70.32620879842416" width="395.52000000000004"><g transform="matrix(1,0,0,1,0,0)"><svg width="395.52000000000004" viewBox="0.88 -32.64 185.89000000000001 33.06" height="70.32620879842416" data-palette-color="url(#e1931c08-eee6-42e0-a4f3-a546833bbcf6)"></svg></g></svg></g></svg></g></svg></g><g transform="matrix(1,0,0,1,132.26465239653035,0)"><svg viewBox="0 0 130.99069520693934 97.19082055942219" height="97.19082055942219" width="130.99069520693934"><g><svg xmlns="http://www.w3.org/2000/svg" data-name="Layer 1" viewBox="2.6399994455434754 10.465171722077978 94.70000057314917 80.04100458840158" x="7.999999999999993" y="0" height="97.19082055942219" width="114.99069520693935" class="icon-icon-0" data-fill-palette-color="accent" id="icon-0"></svg></g></svg></g><g></g></svg></g><defs></defs><mask id="f1651284-9bec-4f94-a372-3f4202450dd8"><g id="SvgjsG1087"><svg viewBox="0 0 395.52 184.11935942614312" height="184.11935942614312" width="395.52"><g><svg viewBox="0 0 395.52000000000004 184.11935942614315" height="184.11935942614312" width="395.52"><g transform="matrix(1,0,0,1,0,113.79315062771897)"><svg viewBox="0 0 395.52000000000004 70.32620879842416" height="70.32620879842416" width="395.52000000000004"><g id="SvgjsG1086"><svg viewBox="0 0 395.52000000000004 70.32620879842416" height="70.32620879842416" width="395.52000000000004" id="SvgjsSvg1085"><g><svg viewBox="0 0 395.52000000000004 70.32620879842416" height="70.32620879842416" width="395.52000000000004"><g transform="matrix(1,0,0,1,0,0)"><svg width="395.52000000000004" viewBox="0.88 -32.64 185.89000000000001 33.06" height="70.32620879842416" data-palette-color="url(#e1931c08-eee6-42e0-a4f3-a546833bbcf6)"><path d="M11.82 0.07Q10.91 0.07 10.5-0.16 10.08-0.39 10.08-0.88L10.08-0.88 10.08-27.08 1.73-27.08Q1.27-27.08 1.07-27.39 0.88-27.71 0.88-28.37L0.88-28.37 0.88-29.08Q0.88-29.76 1.07-30.07 1.27-30.37 1.73-30.37L1.73-30.37 22.09-30.37Q22.56-30.37 22.75-30.07 22.95-29.76 22.95-29.08L22.95-29.08 22.95-28.37Q22.95-27.71 22.75-27.39 22.56-27.08 22.09-27.08L22.09-27.08 13.92-27.08 13.92-0.88Q13.92 0.07 12.16 0.07L12.16 0.07 11.82 0.07ZM29.49 0.07Q28.56 0.07 28.15-0.16 27.73-0.39 27.73-0.88L27.73-0.88 27.73-16.11Q27.73-18.95 27.46-20.2 27.19-21.46 27.19-21.58L27.19-21.58Q27.19-22.12 28.01-22.35 28.83-22.58 29.56-22.58L29.56-22.58Q30.15-22.58 30.44-21.96 30.73-21.34 30.95-20.21L30.95-20.21 31.08-19.7Q33.4-22.95 36.11-22.95L36.11-22.95Q37.35-22.95 37.99-22.5 38.62-22.05 38.62-21.29L38.62-21.29Q38.62-20.56 38.36-19.74 38.11-18.92 37.77-18.92L37.77-18.92Q37.6-18.92 37.16-19.07L37.16-19.07Q36.77-19.24 36.37-19.32 35.98-19.41 35.37-19.41L35.37-19.41Q34.37-19.41 33.48-18.82 32.59-18.24 31.98-17.53 31.37-16.82 31.37-16.75L31.37-16.75 31.37-0.88Q31.37-0.39 30.95-0.16 30.54 0.07 29.66 0.07L29.66 0.07 29.49 0.07ZM49.24 0.24Q45.92 0.24 43.87-1.39 41.82-3.03 41.82-6.25L41.82-6.25Q41.82-9.64 43.89-11.36 45.97-13.09 48.96-13.59 51.95-14.09 56.22-14.16L56.22-14.16 56.22-16.21Q56.22-17.85 55.11-18.84 54-19.82 51.46-19.82L51.46-19.82Q49.53-19.82 48.08-19.37 46.63-18.92 45.36-18.29L45.36-18.29Q44.82-18.02 44.7-18.02L44.7-18.02Q44.4-18.02 44.05-18.44 43.7-18.87 43.44-19.41 43.18-19.95 43.18-20.19L43.18-20.19Q43.18-20.75 44.34-21.41 45.5-22.07 47.38-22.51 49.26-22.95 51.31-22.95L51.31-22.95Q55.39-22.95 57.64-21.17 59.88-19.38 59.88-16.16L59.88-16.16 59.88-6.42Q59.88-3.59 60.14-2.33 60.4-1.07 60.4-0.95L60.4-0.95Q60.4-0.42 59.58-0.18 58.76 0.05 58.05 0.05L58.05 0.05Q57.47 0.05 57.18-0.61 56.9-1.27 56.64-2.51L56.64-2.51 56.54-3Q55.2-1.51 53.38-0.63 51.56 0.24 49.24 0.24L49.24 0.24ZM49.43-2.91Q51.58-2.91 53.1-3.69 54.61-4.47 56.22-5.91L56.22-5.91 56.22-11.04Q53-11.01 50.92-10.77 48.85-10.52 47.29-9.53 45.72-8.54 45.72-6.47L45.72-6.47Q45.72-4.74 46.66-3.82 47.6-2.91 49.43-2.91L49.43-2.91ZM71.77 0.42Q69.94 0.42 68.35-0.05 66.76-0.51 65.83-1.18 64.89-1.86 64.89-2.37L64.89-2.37Q64.89-2.61 65.14-3.15 65.4-3.69 65.75-4.11 66.11-4.54 66.4-4.54L66.4-4.54Q66.47-4.54 66.84-4.3L66.84-4.3Q67.81-3.66 68.9-3.22 69.99-2.78 71.5-2.78L71.5-2.78Q75.75-2.78 75.75-6.3L75.75-6.3Q75.75-7.3 75.35-7.98 74.94-8.67 74-9.19 73.06-9.72 71.43-10.21L71.43-10.21Q69.08-10.89 67.78-11.77 66.47-12.65 65.93-13.83 65.4-15.01 65.4-16.7L65.4-16.7Q65.4-18.51 66.31-19.95 67.23-21.39 68.88-22.19 70.52-23 72.6-23L72.6-23Q74.04-23 75.37-22.73 76.7-22.46 77.52-22.03 78.34-21.61 78.34-21.14L78.34-21.14Q78.34-20.8 78.11-20.23 77.87-19.65 77.53-19.23 77.19-18.8 76.92-18.8L76.92-18.8Q76.87-18.8 76.31-19.1 75.75-19.41 74.88-19.67 74.02-19.92 72.97-19.92L72.97-19.92Q71.31-19.92 70.22-19.18 69.13-18.43 69.13-17.19L69.13-17.19Q69.13-15.72 69.91-14.84 70.7-13.96 72.5-13.4L72.5-13.4Q75.29-12.55 76.75-11.69 78.22-10.84 78.84-9.61 79.46-8.37 79.46-6.37L79.46-6.37Q79.46-4.47 78.43-2.92 77.41-1.37 75.65-0.48 73.89 0.42 71.77 0.42L71.77 0.42ZM90.42 0.24Q88.25 0.24 86.54-1.07 84.83-2.39 84.83-5.74L84.83-5.74 84.83-31.69Q84.83-32.64 86.56-32.64L86.56-32.64 86.76-32.64Q88.47-32.64 88.47-31.69L88.47-31.69 88.47-6.08Q88.47-4.3 89.1-3.59 89.74-2.88 90.81-2.88L90.81-2.88Q91.62-2.88 92.08-2.98 92.54-3.08 92.69-3.08L92.69-3.08Q93.08-3.08 93.34-2.29 93.59-1.51 93.59-1.05L93.59-1.05Q93.59 0.24 90.42 0.24L90.42 0.24ZM106.63 0.24Q101.72 0.24 99.15-2.7 96.57-5.64 96.57-11.25L96.57-11.25Q96.57-16.87 99.18-19.91 101.79-22.95 106.63-22.95L106.63-22.95Q111.41-22.95 113.95-19.93 116.49-16.92 116.49-11.25L116.49-11.25Q116.49-5.62 113.99-2.69 111.49 0.24 106.63 0.24L106.63 0.24ZM106.51-2.88Q109.68-2.88 111.19-4.94 112.71-7.01 112.71-11.33L112.71-11.33Q112.71-15.67 111.19-17.75 109.68-19.82 106.51-19.82L106.51-19.82Q103.36-19.82 101.87-17.76 100.38-15.7 100.38-11.33L100.38-11.33Q100.38-6.98 101.86-4.93 103.33-2.88 106.51-2.88L106.51-2.88ZM131.82 0.24Q126.43 0.24 123.78-2.53 121.13-5.3 121.13-11.45L121.13-11.45Q121.13-17.68 124.08-20.31 127.04-22.95 131.43-22.95L131.43-22.95Q133.07-22.95 134.58-22.67 136.09-22.39 137.02-21.92 137.95-21.46 137.95-20.95L137.95-20.95Q137.95-20.61 137.72-20.04 137.49-19.48 137.16-19.06 136.83-18.63 136.56-18.63L136.56-18.63Q136.48-18.63 136.34-18.69 136.19-18.75 136.07-18.8L136.07-18.8Q133.87-19.82 131.33-19.82L131.33-19.82Q128.33-19.82 126.69-17.86 125.06-15.89 125.06-11.55L125.06-11.55Q125.06-8.47 125.72-6.58 126.38-4.69 127.85-3.78 129.33-2.88 131.8-2.88L131.8-2.88Q134.51-2.88 136.68-4L136.68-4Q136.9-4.05 137.01-4.11 137.12-4.17 137.17-4.17L137.17-4.17Q137.44-4.17 137.78-3.76 138.12-3.34 138.38-2.81 138.63-2.27 138.63-1.95L138.63-1.95Q138.63-1.44 137.7-0.93 136.78-0.42 135.2-0.09 133.63 0.24 131.82 0.24L131.82 0.24ZM145.66 0.07Q143.93 0.07 143.93-0.88L143.93-0.88 143.93-31.69Q143.93-32.64 145.66-32.64L145.66-32.64 145.83-32.64Q147.59-32.64 147.59-31.69L147.59-31.69 147.59-19.97Q148.86-21.26 150.57-22.11 152.28-22.95 154.21-22.95L154.21-22.95Q156.94-22.95 159.03-21.41 161.12-19.87 161.12-15.94L161.12-15.94 161.12-0.88Q161.12 0.07 159.38 0.07L159.38 0.07 159.21 0.07Q157.45 0.07 157.45-0.88L157.45-0.88 157.45-15.58Q157.45-17.55 156.33-18.68 155.21-19.8 153.03-19.8L153.03-19.8Q151.59-19.8 150.39-19.12 149.18-18.43 148.38-17.64 147.59-16.85 147.59-16.75L147.59-16.75 147.59-0.88Q147.59 0.07 145.83 0.07L145.83 0.07 145.66 0.07ZM176.91 0.24Q172 0.24 169.43-2.7 166.85-5.64 166.85-11.25L166.85-11.25Q166.85-16.87 169.46-19.91 172.07-22.95 176.91-22.95L176.91-22.95Q181.69-22.95 184.23-19.93 186.77-16.92 186.77-11.25L186.77-11.25Q186.77-5.62 184.27-2.69 181.77 0.24 176.91 0.24L176.91 0.24ZM176.79-2.88Q179.96-2.88 181.47-4.94 182.99-7.01 182.99-11.33L182.99-11.33Q182.99-15.67 181.47-17.75 179.96-19.82 176.79-19.82L176.79-19.82Q173.64-19.82 172.15-17.76 170.66-15.7 170.66-11.33L170.66-11.33Q170.66-6.98 172.14-4.93 173.61-2.88 176.79-2.88L176.79-2.88Z" opacity="1" transform="matrix(1,0,0,1,0,0)" fill="white" class="wordmark-text-0" id="SvgjsPath1084"></path></svg></g></svg></g></svg></g></svg></g><g transform="matrix(1,0,0,1,132.26465239653035,0)"><svg viewBox="0 0 130.99069520693934 97.19082055942219" height="97.19082055942219" width="130.99069520693934"><g><svg xmlns="http://www.w3.org/2000/svg" data-name="Layer 1" viewBox="2.6399994455434754 10.465171722077978 94.70000057314917 80.04100458840158" x="7.999999999999993" y="0" height="97.19082055942219" width="114.99069520693935" class="icon-icon-0" data-fill-palette-color="accent" id="SvgjsSvg1083"><path d="M34.87 84h9.56a8.45 8.45 0 0 0 11.3 0H65.3a12.84 12.84 0 1 0 0-12.67H55.74a8.45 8.45 0 0 0-11.3 0H34.87a12.84 12.84 0 1 0 0 12.67ZM76.45 68.78a8.84 8.84 0 1 1-8.84 8.84A8.85 8.85 0 0 1 76.45 68.78ZM63.84 80H58.25a8.34 8.34 0 0 0 0-4.67h5.58a12.33 12.33 0 0 0 0 4.67ZM50.09 73.11a4.5 4.5 0 1 1-4.5 4.5A4.51 4.51 0 0 1 50.09 73.11Zm-8.17 2.17a8.34 8.34 0 0 0 0 4.67H36.33a12.33 12.33 0 0 0 0-4.67Zm-27 2.34a8.84 8.84 0 1 1 8.84 8.84A8.85 8.85 0 0 1 14.88 77.62Z" fill="black"></path><path d="M97.34 41a10 10 0 0 0-9.89-10l-16-0.18a8 8 0 0 1-6.08-2.91c-4.06-4.94-7.35-9-9.5-11.69a14 14 0 0 0-10.67-5.29l-21.11-0.46a21 21 0 0 0-21.45 21v23A7.15 7.15 0 0 0 9.81 61.6h2.57a2 2 0 0 0 2-2 10.85 10.85 0 0 1 21.7 0 2 2 0 0 0 2 2H61.92a2 2 0 0 0 2-2 10.85 10.85 0 1 1 21.7 0 2 2 0 0 0 2 2h2.57a7.15 7.15 0 0 0 7.14-7.14Zm-4 13.46a3.14 3.14 0 0 1-3.14 3.14h-0.7A14.86 14.86 0 0 0 60 57.6H40A14.67 14.67 0 0 0 25.23 44.75 14.67 14.67 0 0 0 10.5 57.6h-0.7a3.14 3.14 0 0 1-3.14-3.14v-23A17 17 0 0 1 24 14.47l21.11 0.46a10 10 0 0 1 7.62 3.78c2.17 2.73 5.47 6.8 9.55 11.75h0a12 12 0 0 0 9.12 4.37l16 0.18a6 6 0 0 1 5.93 6Z" fill="black"></path></svg></g></svg></g><g><rect width="132.26465239653032" height="6.342090086089372" y="89.84873047333282" x="263.25534760346966" fill="black"></rect><rect width="132.26465239653032" height="6.342090086089372" y="89.84873047333282" x="2.842170943040401e-14" fill="black"></rect><rect width="132.26465239653032" height="6.342090086089372" y="77.16455030115408" x="263.25534760346966" fill="black"></rect><rect width="132.26465239653032" height="6.342090086089372" y="77.16455030115408" x="2.842170943040401e-14" fill="black"></rect></g></svg></g><defs><mask></mask></defs></svg><rect width="395.52" height="184.11935942614312" fill="black" stroke="none" visibility="hidden"></rect></g></mask><linearGradient x1="0" x2="1" y1="0.5" y2="0.5" id="e1931c08-eee6-42e0-a4f3-a546833bbcf6"><stop stop-color="#ffa62e" offset="0"></stop><stop stop-color="#f71b3d" offset="1"></stop></linearGradient><rect width="395.52" height="184.11935942614312" fill="url(#e1931c08-eee6-42e0-a4f3-a546833bbcf6)" mask="url(#f1651284-9bec-4f94-a372-3f4202450dd8)" data-fill-palette-color="primary"></rect><mask id="ef2e0361-e4ba-4026-92b3-b8e1bba09604"><g id="SvgjsG1106"><svg viewBox="0 0 395.52 184.11935942614312" height="184.11935942614312" width="395.52"><g><svg viewBox="0 0 395.52000000000004 184.11935942614315" height="184.11935942614312" width="395.52"><g transform="matrix(1,0,0,1,0,113.79315062771897)"><svg viewBox="0 0 395.52000000000004 70.32620879842416" height="70.32620879842416" width="395.52000000000004"><g id="SvgjsG1105"><svg viewBox="0 0 395.52000000000004 70.32620879842416" height="70.32620879842416" width="395.52000000000004" id="SvgjsSvg1104"><g><svg viewBox="0 0 395.52000000000004 70.32620879842416" height="70.32620879842416" width="395.52000000000004"><g transform="matrix(1,0,0,1,0,0)"><svg width="395.52000000000004" viewBox="0.88 -32.64 185.89000000000001 33.06" height="70.32620879842416" data-palette-color="url(#e1931c08-eee6-42e0-a4f3-a546833bbcf6)"></svg></g></svg></g></svg></g></svg></g><g transform="matrix(1,0,0,1,132.26465239653035,0)"><svg viewBox="0 0 130.99069520693934 97.19082055942219" height="97.19082055942219" width="130.99069520693934"><g><svg xmlns="http://www.w3.org/2000/svg" data-name="Layer 1" viewBox="2.6399994455434754 10.465171722077978 94.70000057314917 80.04100458840158" x="7.999999999999993" y="0" height="97.19082055942219" width="114.99069520693935" class="icon-icon-0" data-fill-palette-color="accent" id="SvgjsSvg1103"><path d="M34.87 84h9.56a8.45 8.45 0 0 0 11.3 0H65.3a12.84 12.84 0 1 0 0-12.67H55.74a8.45 8.45 0 0 0-11.3 0H34.87a12.84 12.84 0 1 0 0 12.67ZM76.45 68.78a8.84 8.84 0 1 1-8.84 8.84A8.85 8.85 0 0 1 76.45 68.78ZM63.84 80H58.25a8.34 8.34 0 0 0 0-4.67h5.58a12.33 12.33 0 0 0 0 4.67ZM50.09 73.11a4.5 4.5 0 1 1-4.5 4.5A4.51 4.51 0 0 1 50.09 73.11Zm-8.17 2.17a8.34 8.34 0 0 0 0 4.67H36.33a12.33 12.33 0 0 0 0-4.67Zm-27 2.34a8.84 8.84 0 1 1 8.84 8.84A8.85 8.85 0 0 1 14.88 77.62Z" fill="white"></path><path d="M97.34 41a10 10 0 0 0-9.89-10l-16-0.18a8 8 0 0 1-6.08-2.91c-4.06-4.94-7.35-9-9.5-11.69a14 14 0 0 0-10.67-5.29l-21.11-0.46a21 21 0 0 0-21.45 21v23A7.15 7.15 0 0 0 9.81 61.6h2.57a2 2 0 0 0 2-2 10.85 10.85 0 0 1 21.7 0 2 2 0 0 0 2 2H61.92a2 2 0 0 0 2-2 10.85 10.85 0 1 1 21.7 0 2 2 0 0 0 2 2h2.57a7.15 7.15 0 0 0 7.14-7.14Zm-4 13.46a3.14 3.14 0 0 1-3.14 3.14h-0.7A14.86 14.86 0 0 0 60 57.6H40A14.67 14.67 0 0 0 25.23 44.75 14.67 14.67 0 0 0 10.5 57.6h-0.7a3.14 3.14 0 0 1-3.14-3.14v-23A17 17 0 0 1 24 14.47l21.11 0.46a10 10 0 0 1 7.62 3.78c2.17 2.73 5.47 6.8 9.55 11.75h0a12 12 0 0 0 9.12 4.37l16 0.18a6 6 0 0 1 5.93 6Z" fill="white"></path></svg></g></svg></g><g><rect width="132.26465239653032" height="6.342090086089372" y="89.84873047333282" x="263.25534760346966" fill="white"></rect><rect width="132.26465239653032" height="6.342090086089372" y="89.84873047333282" x="2.842170943040401e-14" fill="white"></rect><rect width="132.26465239653032" height="6.342090086089372" y="77.16455030115408" x="263.25534760346966" fill="white"></rect><rect width="132.26465239653032" height="6.342090086089372" y="77.16455030115408" x="2.842170943040401e-14" fill="white"></rect></g></svg></g><defs><mask></mask></defs><mask><g id="SvgjsG1102"><svg viewBox="0 0 395.52 184.11935942614312" height="184.11935942614312" width="395.52"><g><svg viewBox="0 0 395.52000000000004 184.11935942614315" height="184.11935942614312" width="395.52"><g transform="matrix(1,0,0,1,0,113.79315062771897)"><svg viewBox="0 0 395.52000000000004 70.32620879842416" height="70.32620879842416" width="395.52000000000004"><g id="SvgjsG1101"><svg viewBox="0 0 395.52000000000004 70.32620879842416" height="70.32620879842416" width="395.52000000000004" id="SvgjsSvg1100"><g><svg viewBox="0 0 395.52000000000004 70.32620879842416" height="70.32620879842416" width="395.52000000000004"><g transform="matrix(1,0,0,1,0,0)"><svg width="395.52000000000004" viewBox="0.88 -32.64 185.89000000000001 33.06" height="70.32620879842416" data-palette-color="url(#e1931c08-eee6-42e0-a4f3-a546833bbcf6)"><path d="M11.82 0.07Q10.91 0.07 10.5-0.16 10.08-0.39 10.08-0.88L10.08-0.88 10.08-27.08 1.73-27.08Q1.27-27.08 1.07-27.39 0.88-27.71 0.88-28.37L0.88-28.37 0.88-29.08Q0.88-29.76 1.07-30.07 1.27-30.37 1.73-30.37L1.73-30.37 22.09-30.37Q22.56-30.37 22.75-30.07 22.95-29.76 22.95-29.08L22.95-29.08 22.95-28.37Q22.95-27.71 22.75-27.39 22.56-27.08 22.09-27.08L22.09-27.08 13.92-27.08 13.92-0.88Q13.92 0.07 12.16 0.07L12.16 0.07 11.82 0.07ZM29.49 0.07Q28.56 0.07 28.15-0.16 27.73-0.39 27.73-0.88L27.73-0.88 27.73-16.11Q27.73-18.95 27.46-20.2 27.19-21.46 27.19-21.58L27.19-21.58Q27.19-22.12 28.01-22.35 28.83-22.58 29.56-22.58L29.56-22.58Q30.15-22.58 30.44-21.96 30.73-21.34 30.95-20.21L30.95-20.21 31.08-19.7Q33.4-22.95 36.11-22.95L36.11-22.95Q37.35-22.95 37.99-22.5 38.62-22.05 38.62-21.29L38.62-21.29Q38.62-20.56 38.36-19.74 38.11-18.92 37.77-18.92L37.77-18.92Q37.6-18.92 37.16-19.07L37.16-19.07Q36.77-19.24 36.37-19.32 35.98-19.41 35.37-19.41L35.37-19.41Q34.37-19.41 33.48-18.82 32.59-18.24 31.98-17.53 31.37-16.82 31.37-16.75L31.37-16.75 31.37-0.88Q31.37-0.39 30.95-0.16 30.54 0.07 29.66 0.07L29.66 0.07 29.49 0.07ZM49.24 0.24Q45.92 0.24 43.87-1.39 41.82-3.03 41.82-6.25L41.82-6.25Q41.82-9.64 43.89-11.36 45.97-13.09 48.96-13.59 51.95-14.09 56.22-14.16L56.22-14.16 56.22-16.21Q56.22-17.85 55.11-18.84 54-19.82 51.46-19.82L51.46-19.82Q49.53-19.82 48.08-19.37 46.63-18.92 45.36-18.29L45.36-18.29Q44.82-18.02 44.7-18.02L44.7-18.02Q44.4-18.02 44.05-18.44 43.7-18.87 43.44-19.41 43.18-19.95 43.18-20.19L43.18-20.19Q43.18-20.75 44.34-21.41 45.5-22.07 47.38-22.51 49.26-22.95 51.31-22.95L51.31-22.95Q55.39-22.95 57.64-21.17 59.88-19.38 59.88-16.16L59.88-16.16 59.88-6.42Q59.88-3.59 60.14-2.33 60.4-1.07 60.4-0.95L60.4-0.95Q60.4-0.42 59.58-0.18 58.76 0.05 58.05 0.05L58.05 0.05Q57.47 0.05 57.18-0.61 56.9-1.27 56.64-2.51L56.64-2.51 56.54-3Q55.2-1.51 53.38-0.63 51.56 0.24 49.24 0.24L49.24 0.24ZM49.43-2.91Q51.58-2.91 53.1-3.69 54.61-4.47 56.22-5.91L56.22-5.91 56.22-11.04Q53-11.01 50.92-10.77 48.85-10.52 47.29-9.53 45.72-8.54 45.72-6.47L45.72-6.47Q45.72-4.74 46.66-3.82 47.6-2.91 49.43-2.91L49.43-2.91ZM71.77 0.42Q69.94 0.42 68.35-0.05 66.76-0.51 65.83-1.18 64.89-1.86 64.89-2.37L64.89-2.37Q64.89-2.61 65.14-3.15 65.4-3.69 65.75-4.11 66.11-4.54 66.4-4.54L66.4-4.54Q66.47-4.54 66.84-4.3L66.84-4.3Q67.81-3.66 68.9-3.22 69.99-2.78 71.5-2.78L71.5-2.78Q75.75-2.78 75.75-6.3L75.75-6.3Q75.75-7.3 75.35-7.98 74.94-8.67 74-9.19 73.06-9.72 71.43-10.21L71.43-10.21Q69.08-10.89 67.78-11.77 66.47-12.65 65.93-13.83 65.4-15.01 65.4-16.7L65.4-16.7Q65.4-18.51 66.31-19.95 67.23-21.39 68.88-22.19 70.52-23 72.6-23L72.6-23Q74.04-23 75.37-22.73 76.7-22.46 77.52-22.03 78.34-21.61 78.34-21.14L78.34-21.14Q78.34-20.8 78.11-20.23 77.87-19.65 77.53-19.23 77.19-18.8 76.92-18.8L76.92-18.8Q76.87-18.8 76.31-19.1 75.75-19.41 74.88-19.67 74.02-19.92 72.97-19.92L72.97-19.92Q71.31-19.92 70.22-19.18 69.13-18.43 69.13-17.19L69.13-17.19Q69.13-15.72 69.91-14.84 70.7-13.96 72.5-13.4L72.5-13.4Q75.29-12.55 76.75-11.69 78.22-10.84 78.84-9.61 79.46-8.37 79.46-6.37L79.46-6.37Q79.46-4.47 78.43-2.92 77.41-1.37 75.65-0.48 73.89 0.42 71.77 0.42L71.77 0.42ZM90.42 0.24Q88.25 0.24 86.54-1.07 84.83-2.39 84.83-5.74L84.83-5.74 84.83-31.69Q84.83-32.64 86.56-32.64L86.56-32.64 86.76-32.64Q88.47-32.64 88.47-31.69L88.47-31.69 88.47-6.08Q88.47-4.3 89.1-3.59 89.74-2.88 90.81-2.88L90.81-2.88Q91.62-2.88 92.08-2.98 92.54-3.08 92.69-3.08L92.69-3.08Q93.08-3.08 93.34-2.29 93.59-1.51 93.59-1.05L93.59-1.05Q93.59 0.24 90.42 0.24L90.42 0.24ZM106.63 0.24Q101.72 0.24 99.15-2.7 96.57-5.64 96.57-11.25L96.57-11.25Q96.57-16.87 99.18-19.91 101.79-22.95 106.63-22.95L106.63-22.95Q111.41-22.95 113.95-19.93 116.49-16.92 116.49-11.25L116.49-11.25Q116.49-5.62 113.99-2.69 111.49 0.24 106.63 0.24L106.63 0.24ZM106.51-2.88Q109.68-2.88 111.19-4.94 112.71-7.01 112.71-11.33L112.71-11.33Q112.71-15.67 111.19-17.75 109.68-19.82 106.51-19.82L106.51-19.82Q103.36-19.82 101.87-17.76 100.38-15.7 100.38-11.33L100.38-11.33Q100.38-6.98 101.86-4.93 103.33-2.88 106.51-2.88L106.51-2.88ZM131.82 0.24Q126.43 0.24 123.78-2.53 121.13-5.3 121.13-11.45L121.13-11.45Q121.13-17.68 124.08-20.31 127.04-22.95 131.43-22.95L131.43-22.95Q133.07-22.95 134.58-22.67 136.09-22.39 137.02-21.92 137.95-21.46 137.95-20.95L137.95-20.95Q137.95-20.61 137.72-20.04 137.49-19.48 137.16-19.06 136.83-18.63 136.56-18.63L136.56-18.63Q136.48-18.63 136.34-18.69 136.19-18.75 136.07-18.8L136.07-18.8Q133.87-19.82 131.33-19.82L131.33-19.82Q128.33-19.82 126.69-17.86 125.06-15.89 125.06-11.55L125.06-11.55Q125.06-8.47 125.72-6.58 126.38-4.69 127.85-3.78 129.33-2.88 131.8-2.88L131.8-2.88Q134.51-2.88 136.68-4L136.68-4Q136.9-4.05 137.01-4.11 137.12-4.17 137.17-4.17L137.17-4.17Q137.44-4.17 137.78-3.76 138.12-3.34 138.38-2.81 138.63-2.27 138.63-1.95L138.63-1.95Q138.63-1.44 137.7-0.93 136.78-0.42 135.2-0.09 133.63 0.24 131.82 0.24L131.82 0.24ZM145.66 0.07Q143.93 0.07 143.93-0.88L143.93-0.88 143.93-31.69Q143.93-32.64 145.66-32.64L145.66-32.64 145.83-32.64Q147.59-32.64 147.59-31.69L147.59-31.69 147.59-19.97Q148.86-21.26 150.57-22.11 152.28-22.95 154.21-22.95L154.21-22.95Q156.94-22.95 159.03-21.41 161.12-19.87 161.12-15.94L161.12-15.94 161.12-0.88Q161.12 0.07 159.38 0.07L159.38 0.07 159.21 0.07Q157.45 0.07 157.45-0.88L157.45-0.88 157.45-15.58Q157.45-17.55 156.33-18.68 155.21-19.8 153.03-19.8L153.03-19.8Q151.59-19.8 150.39-19.12 149.18-18.43 148.38-17.64 147.59-16.85 147.59-16.75L147.59-16.75 147.59-0.88Q147.59 0.07 145.83 0.07L145.83 0.07 145.66 0.07ZM176.91 0.24Q172 0.24 169.43-2.7 166.85-5.64 166.85-11.25L166.85-11.25Q166.85-16.87 169.46-19.91 172.07-22.95 176.91-22.95L176.91-22.95Q181.69-22.95 184.23-19.93 186.77-16.92 186.77-11.25L186.77-11.25Q186.77-5.62 184.27-2.69 181.77 0.24 176.91 0.24L176.91 0.24ZM176.79-2.88Q179.96-2.88 181.47-4.94 182.99-7.01 182.99-11.33L182.99-11.33Q182.99-15.67 181.47-17.75 179.96-19.82 176.79-19.82L176.79-19.82Q173.64-19.82 172.15-17.76 170.66-15.7 170.66-11.33L170.66-11.33Q170.66-6.98 172.14-4.93 173.61-2.88 176.79-2.88L176.79-2.88Z" opacity="1" transform="matrix(1,0,0,1,0,0)" fill="black" class="wordmark-text-0" id="SvgjsPath1099"></path></svg></g></svg></g></svg></g></svg></g><g transform="matrix(1,0,0,1,132.26465239653035,0)"><svg viewBox="0 0 130.99069520693934 97.19082055942219" height="97.19082055942219" width="130.99069520693934"><g><svg xmlns="http://www.w3.org/2000/svg" data-name="Layer 1" viewBox="2.6399994455434754 10.465171722077978 94.70000057314917 80.04100458840158" x="7.999999999999993" y="0" height="97.19082055942219" width="114.99069520693935" class="icon-icon-0" data-fill-palette-color="accent" id="SvgjsSvg1098"><path d="M34.87 84h9.56a8.45 8.45 0 0 0 11.3 0H65.3a12.84 12.84 0 1 0 0-12.67H55.74a8.45 8.45 0 0 0-11.3 0H34.87a12.84 12.84 0 1 0 0 12.67ZM76.45 68.78a8.84 8.84 0 1 1-8.84 8.84A8.85 8.85 0 0 1 76.45 68.78ZM63.84 80H58.25a8.34 8.34 0 0 0 0-4.67h5.58a12.33 12.33 0 0 0 0 4.67ZM50.09 73.11a4.5 4.5 0 1 1-4.5 4.5A4.51 4.51 0 0 1 50.09 73.11Zm-8.17 2.17a8.34 8.34 0 0 0 0 4.67H36.33a12.33 12.33 0 0 0 0-4.67Zm-27 2.34a8.84 8.84 0 1 1 8.84 8.84A8.85 8.85 0 0 1 14.88 77.62Z" fill="black"></path><path d="M97.34 41a10 10 0 0 0-9.89-10l-16-0.18a8 8 0 0 1-6.08-2.91c-4.06-4.94-7.35-9-9.5-11.69a14 14 0 0 0-10.67-5.29l-21.11-0.46a21 21 0 0 0-21.45 21v23A7.15 7.15 0 0 0 9.81 61.6h2.57a2 2 0 0 0 2-2 10.85 10.85 0 0 1 21.7 0 2 2 0 0 0 2 2H61.92a2 2 0 0 0 2-2 10.85 10.85 0 1 1 21.7 0 2 2 0 0 0 2 2h2.57a7.15 7.15 0 0 0 7.14-7.14Zm-4 13.46a3.14 3.14 0 0 1-3.14 3.14h-0.7A14.86 14.86 0 0 0 60 57.6H40A14.67 14.67 0 0 0 25.23 44.75 14.67 14.67 0 0 0 10.5 57.6h-0.7a3.14 3.14 0 0 1-3.14-3.14v-23A17 17 0 0 1 24 14.47l21.11 0.46a10 10 0 0 1 7.62 3.78c2.17 2.73 5.47 6.8 9.55 11.75h0a12 12 0 0 0 9.12 4.37l16 0.18a6 6 0 0 1 5.93 6Z" fill="black"></path></svg></g></svg></g><g><rect width="132.26465239653032" height="6.342090086089372" y="89.84873047333282" x="263.25534760346966" fill="black"></rect><rect width="132.26465239653032" height="6.342090086089372" y="89.84873047333282" x="2.842170943040401e-14" fill="black"></rect><rect width="132.26465239653032" height="6.342090086089372" y="77.16455030115408" x="263.25534760346966" fill="black"></rect><rect width="132.26465239653032" height="6.342090086089372" y="77.16455030115408" x="2.842170943040401e-14" fill="black"></rect></g></svg></g><defs><mask></mask></defs></svg><rect width="395.52" height="184.11935942614312" fill="black" stroke="none" visibility="hidden"></rect></g></mask></svg><rect width="395.52" height="184.11935942614312" fill="black" stroke="none" visibility="hidden"></rect></g></mask><linearGradient x1="0" x2="1" y1="0.5" y2="0.5" id="2f502a67-f206-4021-9cbf-9ac717c20dc3"><stop stop-color="#ffa62e" offset="0"></stop><stop stop-color="#f71b3d" offset="1"></stop></linearGradient><rect width="395.52" height="184.11935942614312" fill="url(#2f502a67-f206-4021-9cbf-9ac717c20dc3)" mask="url(#ef2e0361-e4ba-4026-92b3-b8e1bba09604)" data-fill-palette-color="accent"></rect></svg><rect width="395.52" height="184.11935942614312" fill="none" stroke="none" visibility="hidden"></rect></g></svg></g></svg>